<svg xmlns="http://www.w3.org/2000/svg" xmlns:xlink="http://www.w3.org/1999/xlink" width="500" zoomAndPan="magnify" viewBox="0 0 375 374.999991" height="500" preserveAspectRatio="xMidYMid meet" version="1.0"><defs><g/><clipPath id="d04a073f84"><path d="M 74.765625 74.765625 L 300.234375 74.765625 L 300.234375 300.234375 L 74.765625 300.234375 Z M 74.765625 74.765625 " clip-rule="nonzero"/></clipPath><clipPath id="2fba9f2af4"><path d="M 187.5 74.765625 C 125.238281 74.765625 74.765625 125.238281 74.765625 187.5 C 74.765625 249.761719 125.238281 300.234375 187.5 300.234375 C 249.761719 300.234375 300.234375 249.761719 300.234375 187.5 C 300.234375 125.238281 249.761719 74.765625 187.5 74.765625 Z M 187.5 74.765625 " clip-rule="nonzero"/></clipPath><clipPath id="f4170e5c4b"><path d="M 108.492188 108.492188 L 266.507812 108.492188 L 266.507812 266.507812 L 108.492188 266.507812 Z M 108.492188 108.492188 " clip-rule="nonzero"/></clipPath><clipPath id="e761e81da4"><path d="M 187.5 108.492188 C 143.863281 108.492188 108.492188 143.863281 108.492188 187.5 C 108.492188 231.136719 143.863281 266.507812 187.5 266.507812 C 231.136719 266.507812 266.507812 231.136719 266.507812 187.5 C 266.507812 143.863281 231.136719 108.492188 187.5 108.492188 Z M 187.5 108.492188 " clip-rule="nonzero"/></clipPath><clipPath id="9c134b1a60"><path d="M 187.378906 178.652344 L 258.808594 178.652344 L 258.808594 224.085938 L 187.378906 224.085938 Z M 187.378906 178.652344 " clip-rule="nonzero"/></clipPath><clipPath id="78810eda85"><path d="M 195.820312 204.351562 L 262.027344 204.351562 L 262.027344 220.730469 L 195.820312 220.730469 Z M 195.820312 204.351562 " clip-rule="nonzero"/></clipPath><clipPath id="9d7ee715da"><path d="M 116.703125 176.890625 L 187.503906 176.890625 L 187.503906 224.085938 L 116.703125 224.085938 Z M 116.703125 176.890625 " clip-rule="nonzero"/></clipPath><clipPath id="7a706144b3"><path d="M 112.777344 202 L 180 202 L 180 221 L 112.777344 221 Z M 112.777344 202 " clip-rule="nonzero"/></clipPath><clipPath id="44deb54610"><path d="M 212 137.835938 L 218 137.835938 L 218 143 L 212 143 Z M 212 137.835938 " clip-rule="nonzero"/></clipPath><clipPath id="0f8090a32c"><path d="M 88.269531 189.742188 L 100.433594 189.742188 L 100.433594 201.902344 L 88.269531 201.902344 Z M 88.269531 189.742188 " clip-rule="nonzero"/></clipPath><clipPath id="fad572ce66"><path d="M 94.351562 189.742188 C 90.992188 189.742188 88.269531 192.464844 88.269531 195.820312 C 88.269531 199.179688 90.992188 201.902344 94.351562 201.902344 C 97.710938 201.902344 100.433594 199.179688 100.433594 195.820312 C 100.433594 192.464844 97.710938 189.742188 94.351562 189.742188 Z M 94.351562 189.742188 " clip-rule="nonzero"/></clipPath><clipPath id="721d28c675"><path d="M 274.757812 189.742188 L 286.921875 189.742188 L 286.921875 201.902344 L 274.757812 201.902344 Z M 274.757812 189.742188 " clip-rule="nonzero"/></clipPath><clipPath id="a498f57645"><path d="M 280.839844 189.742188 C 277.480469 189.742188 274.757812 192.464844 274.757812 195.820312 C 274.757812 199.179688 277.480469 201.902344 280.839844 201.902344 C 284.199219 201.902344 286.921875 199.179688 286.921875 195.820312 C 286.921875 192.464844 284.199219 189.742188 280.839844 189.742188 Z M 280.839844 189.742188 " clip-rule="nonzero"/></clipPath></defs><g clip-path="url(#d04a073f84)"><g clip-path="url(#2fba9f2af4)"><path fill="#00c951" d="M 74.765625 74.765625 L 300.234375 74.765625 L 300.234375 300.234375 L 74.765625 300.234375 Z M 74.765625 74.765625 " fill-opacity="1" fill-rule="nonzero"/></g></g><g clip-path="url(#f4170e5c4b)"><g clip-path="url(#e761e81da4)"><path fill="#ffffff" d="M 108.492188 108.492188 L 266.507812 108.492188 L 266.507812 266.507812 L 108.492188 266.507812 Z M 108.492188 108.492188 " fill-opacity="1" fill-rule="nonzero"/></g></g><g clip-path="url(#9c134b1a60)"><path fill="#000000" d="M 237.1875 178.71875 L 258.789062 201.394531 C 210.710938 201.492188 187.382812 224.320312 187.382812 224.320312 C 187.382812 224.320312 199.179688 186.921875 237.1875 178.71875 " fill-opacity="1" fill-rule="nonzero"/></g><g clip-path="url(#78810eda85)"><path fill="#00c951" d="M 262.199219 219.101562 C 230.550781 211.390625 207.445312 216.523438 195.832031 220.636719 C 205.28125 214.660156 222.660156 206.347656 248.246094 204.453125 L 262.199219 219.101562 " fill-opacity="1" fill-rule="nonzero"/></g><g clip-path="url(#9d7ee715da)"><path fill="#000000" d="M 139.214844 176.996094 L 116.828125 198.898438 C 164.871094 200.6875 187.382812 224.320312 187.382812 224.320312 C 187.382812 224.320312 176.910156 186.527344 139.214844 176.996094 " fill-opacity="1" fill-rule="nonzero"/></g><g clip-path="url(#7a706144b3)"><path fill="#00c951" d="M 112.796875 216.472656 C 144.695312 209.882812 167.609375 215.824219 179.070312 220.34375 C 169.835938 214.035156 152.761719 205.117188 127.257812 202.324219 L 112.796875 216.472656 " fill-opacity="1" fill-rule="nonzero"/></g><path fill="#cea348" d="M 242.226562 165.546875 L 239.125 173.65625 C 219.058594 177.71875 205.941406 190.398438 198.464844 200.332031 C 204.785156 188.828125 218.082031 171.265625 242.226562 165.546875 " fill-opacity="1" fill-rule="nonzero"/><path fill="#cea348" d="M 133.359375 163.316406 L 136.191406 171.578125 C 156.832031 176.082031 169.878906 189.550781 177.152344 199.957031 C 171.136719 188.03125 158.117188 169.578125 133.359375 163.316406 " fill-opacity="1" fill-rule="nonzero"/><path fill="#00c951" d="M 187.949219 192.207031 C 187.949219 192.207031 176.726562 172.269531 161.1875 167.515625 C 161.1875 167.515625 183.65625 186.882812 187.421875 222.097656 C 192.421875 187.035156 215.558594 168.472656 215.558594 168.472656 C 199.863281 172.675781 187.949219 192.207031 187.949219 192.207031 " fill-opacity="1" fill-rule="nonzero"/><path fill="#00c951" d="M 195.582031 173.222656 C 195.660156 168.769531 192.457031 165.101562 188.425781 165.03125 C 184.398438 164.960938 181.066406 168.511719 180.988281 172.964844 C 180.910156 177.414062 184.113281 181.082031 188.144531 181.152344 C 192.171875 181.222656 195.503906 177.671875 195.582031 173.222656 " fill-opacity="1" fill-rule="nonzero"/><path fill="#000000" d="M 197.972656 146.546875 L 184.785156 146.3125 L 184.550781 159.5 L 197.742188 159.734375 L 197.972656 146.546875 " fill-opacity="1" fill-rule="nonzero"/><path fill="#000000" d="M 204.683594 140.066406 L 198.089844 139.953125 L 197.972656 146.546875 L 204.566406 146.660156 L 204.683594 140.066406 " fill-opacity="1" fill-rule="nonzero"/><path fill="#00c951" d="M 217.703125 155.945312 L 211.109375 155.832031 L 210.992188 162.425781 L 217.585938 162.539062 L 217.703125 155.945312 " fill-opacity="1" fill-rule="nonzero"/><path fill="#cea348" d="M 206.035156 153.28125 L 202.867188 153.226562 L 202.808594 156.398438 L 205.980469 156.453125 L 206.035156 153.28125 " fill-opacity="1" fill-rule="nonzero"/><path fill="#cea348" d="M 237.09375 148.175781 L 231.011719 148.070312 L 230.902344 154.152344 L 236.988281 154.261719 L 237.09375 148.175781 " fill-opacity="1" fill-rule="nonzero"/><path fill="#f8b31a" d="M 225.566406 162.082031 L 222.394531 162.027344 L 222.339844 165.199219 L 225.507812 165.253906 L 225.566406 162.082031 " fill-opacity="1" fill-rule="nonzero"/><g clip-path="url(#44deb54610)"><path fill="#cea348" d="M 217.761719 137.921875 L 213.011719 137.835938 L 212.925781 142.589844 L 217.679688 142.671875 L 217.761719 137.921875 " fill-opacity="1" fill-rule="nonzero"/></g><path fill="#f8b31a" d="M 223.421875 144.59375 L 218.621094 144.507812 L 218.535156 149.308594 L 223.335938 149.394531 L 223.421875 144.59375 " fill-opacity="1" fill-rule="nonzero"/><g fill="#ffffff" fill-opacity="1"><g transform="translate(130.961125, 119.213519)"><g><path d="M 13.421875 -8.609375 L 10.921875 -7.015625 L 1.984375 -16.046875 L 6.515625 -4.171875 L 4.03125 -2.578125 L -8.359375 -13.578125 L -5.4375 -15.453125 L 3.09375 -6.71875 L -1.296875 -18.109375 L 1.421875 -19.859375 L 10.046875 -11.1875 L 5.609375 -22.546875 L 8.53125 -24.40625 Z M 13.421875 -8.609375 "/></g></g></g><g fill="#ffffff" fill-opacity="1"><g transform="translate(147.444469, 108.729664)"><g><path d="M 0.40625 -3.953125 C -0.625 -4.898438 -1.429688 -6.125 -2.015625 -7.625 C -2.597656 -9.125 -2.828125 -10.578125 -2.703125 -11.984375 C -2.578125 -13.390625 -2.101562 -14.632812 -1.28125 -15.71875 C -0.457031 -16.800781 0.660156 -17.617188 2.078125 -18.171875 C 4.234375 -19.003906 6.25 -18.953125 8.125 -18.015625 C 10.007812 -17.078125 11.410156 -15.429688 12.328125 -13.078125 C 12.742188 -12.003906 12.960938 -10.9375 12.984375 -9.875 C 13.003906 -8.8125 12.847656 -7.816406 12.515625 -6.890625 C 12.191406 -5.972656 11.65625 -5.132812 10.90625 -4.375 C 10.15625 -3.625 9.234375 -3.035156 8.140625 -2.609375 C 6.710938 -2.054688 5.328125 -1.90625 3.984375 -2.15625 C 2.640625 -2.414062 1.445312 -3.015625 0.40625 -3.953125 Z M 3.109375 -15.5625 C 1.878906 -15.082031 1.070312 -14.226562 0.6875 -13 C 0.3125 -11.769531 0.425781 -10.375 1.03125 -8.8125 C 1.632812 -7.257812 2.488281 -6.15625 3.59375 -5.5 C 4.707031 -4.84375 5.878906 -4.753906 7.109375 -5.234375 C 8.335938 -5.710938 9.148438 -6.5625 9.546875 -7.78125 C 9.941406 -9.007812 9.847656 -10.378906 9.265625 -11.890625 C 8.640625 -13.503906 7.769531 -14.640625 6.65625 -15.296875 C 5.550781 -15.960938 4.367188 -16.050781 3.109375 -15.5625 Z M 3.109375 -15.5625 "/></g></g></g><g fill="#ffffff" fill-opacity="1"><g transform="translate(162.419347, 102.894107)"><g><path d="M 10.046875 -4.796875 C 9.960938 -5.210938 9.898438 -5.539062 9.859375 -5.78125 C 9.816406 -6.019531 9.773438 -6.238281 9.734375 -6.4375 C 9.609375 -7.070312 9.359375 -7.507812 8.984375 -7.75 C 8.609375 -7.988281 8.070312 -8.039062 7.375 -7.90625 L 3.703125 -7.171875 L 4.9375 -0.96875 L 1.71875 -0.34375 L -1.375 -15.984375 L 7 -17.640625 C 7.632812 -17.765625 8.222656 -17.78125 8.765625 -17.6875 C 9.304688 -17.601562 9.753906 -17.441406 10.109375 -17.203125 C 10.472656 -16.972656 10.796875 -16.6875 11.078125 -16.34375 C 11.359375 -16.007812 11.566406 -15.664062 11.703125 -15.3125 C 11.847656 -14.96875 11.957031 -14.609375 12.03125 -14.234375 C 12.40625 -12.328125 11.785156 -10.863281 10.171875 -9.84375 C 10.472656 -9.78125 10.707031 -9.726562 10.875 -9.6875 C 11.050781 -9.644531 11.242188 -9.578125 11.453125 -9.484375 C 11.660156 -9.390625 11.8125 -9.300781 11.90625 -9.21875 C 12 -9.144531 12.113281 -8.992188 12.25 -8.765625 C 12.382812 -8.546875 12.484375 -8.347656 12.546875 -8.171875 C 12.609375 -7.992188 12.695312 -7.695312 12.8125 -7.28125 C 12.9375 -6.875 13.039062 -6.488281 13.125 -6.125 C 13.207031 -5.757812 13.320312 -5.25 13.46875 -4.59375 C 13.53125 -4.25 13.628906 -3.992188 13.765625 -3.828125 C 13.898438 -3.660156 14.113281 -3.53125 14.40625 -3.4375 L 14.515625 -2.875 L 11.0625 -2.1875 C 10.789062 -2.507812 10.585938 -2.835938 10.453125 -3.171875 C 10.328125 -3.503906 10.191406 -4.046875 10.046875 -4.796875 Z M 8.921875 -13.125 C 8.835938 -13.550781 8.71875 -13.890625 8.5625 -14.140625 C 8.40625 -14.398438 8.195312 -14.570312 7.9375 -14.65625 C 7.6875 -14.75 7.429688 -14.789062 7.171875 -14.78125 C 6.921875 -14.78125 6.609375 -14.742188 6.234375 -14.671875 L 2.375 -13.90625 L 3.1875 -9.84375 L 7.046875 -10.609375 C 7.410156 -10.679688 7.710938 -10.765625 7.953125 -10.859375 C 8.191406 -10.960938 8.410156 -11.101562 8.609375 -11.28125 C 8.804688 -11.457031 8.925781 -11.695312 8.96875 -12 C 9.019531 -12.3125 9.003906 -12.6875 8.921875 -13.125 Z M 8.921875 -13.125 "/></g></g></g><g fill="#ffffff" fill-opacity="1"><g transform="translate(177.01267, 99.934489)"><g><path d="M 4.75 -5.453125 L 4.890625 -0.125 L 1.609375 -0.046875 L 1.1875 -15.984375 L 4.46875 -16.0625 L 4.65625 -9.0625 L 10.703125 -16.234375 L 14.5625 -16.34375 L 8.359375 -9.28125 L 15.671875 -0.421875 L 11.75 -0.3125 L 6.34375 -7.203125 Z M 4.75 -5.453125 "/></g></g></g><g fill="#ffffff" fill-opacity="1"><g transform="translate(191.931718, 99.515394)"><g><path d="M 5.65625 -4.953125 L 4.890625 0.671875 L 1.640625 0.21875 L 3.796875 -15.578125 L 10.765625 -14.625 C 12.410156 -14.394531 13.613281 -13.800781 14.375 -12.84375 C 15.132812 -11.882812 15.40625 -10.613281 15.1875 -9.03125 C 14.96875 -7.425781 14.359375 -6.203125 13.359375 -5.359375 C 12.367188 -4.523438 11.15625 -4.207031 9.71875 -4.40625 Z M 6.03125 -7.671875 L 9.0625 -7.265625 C 9.9375 -7.148438 10.601562 -7.253906 11.0625 -7.578125 C 11.519531 -7.898438 11.800781 -8.460938 11.90625 -9.265625 C 12.019531 -10.085938 11.898438 -10.71875 11.546875 -11.15625 C 11.191406 -11.59375 10.578125 -11.867188 9.703125 -11.984375 L 6.671875 -12.390625 Z M 6.03125 -7.671875 "/></g></g></g><g fill="#ffffff" fill-opacity="1"><g transform="translate(205.610666, 101.365532)"><g><path d="M 9.296875 -13.890625 L 5.59375 -1.234375 L 12.890625 0.90625 L 12.125 3.546875 L 1.671875 0.484375 L 6.140625 -14.8125 Z M 9.296875 -13.890625 "/></g></g></g><g fill="#ffffff" fill-opacity="1"><g transform="translate(217.699598, 104.738639)"><g><path d="M 11.265625 1.78125 L 5.859375 -0.78125 L 3.53125 1.671875 L 0.515625 0.25 L 12.4375 -11.765625 L 15.703125 -10.234375 L 13.875 6.53125 L 10.859375 5.109375 Z M 11.625 -1.109375 L 12.40625 -7.609375 L 7.859375 -2.875 Z M 11.625 -1.109375 "/></g></g></g><g fill="#ffffff" fill-opacity="1"><g transform="translate(231.210484, 111.079776)"><g><path d="M 10.890625 0.328125 L 7.546875 5.1875 L 4.859375 3.34375 L 8.203125 -1.515625 L 9.5 -12.8125 L 12.515625 -10.75 L 11.203125 -3.09375 L 17.703125 -7.171875 L 20.734375 -5.09375 Z M 10.890625 0.328125 "/></g></g></g><g fill="#ffffff" fill-opacity="1"><g transform="translate(135.592772, 280.89369)"><g><path d="M 10.09375 -13.46875 L 5.703125 -0.9375 L 12.9375 1.609375 L 12.015625 4.21875 L 1.671875 0.578125 L 6.984375 -14.5625 Z M 10.09375 -13.46875 "/></g></g></g><g fill="#ffffff" fill-opacity="1"><g transform="translate(149.075713, 285.612731)"><g><path d="M 6.5 -5.5625 L 5.546875 -1.53125 L 13.984375 0.4375 L 13.359375 3.125 L 1.6875 0.390625 L 5.34375 -15.234375 L 16.640625 -12.59375 L 16.015625 -9.90625 L 7.953125 -11.78125 L 7.125 -8.25 L 14.59375 -6.515625 L 13.96875 -3.828125 Z M 6.5 -5.5625 "/></g></g></g><g fill="#ffffff" fill-opacity="1"><g transform="translate(164.234302, 289.106171)"><g><path d="M 8.671875 1.015625 L 5.890625 0.6875 L 2.40625 -15.875 L 5.6875 -15.484375 L 7.84375 -3.046875 L 12.71875 -14.65625 L 16.015625 -14.28125 Z M 8.671875 1.015625 "/></g></g></g><g fill="#ffffff" fill-opacity="1"><g transform="translate(179.689303, 290.875303)"><g><path d="M 5.078125 -6.890625 L 5.0625 -2.75 L 13.734375 -2.703125 L 13.71875 0.0625 L 1.734375 0.015625 L 1.8125 -16.03125 L 13.40625 -15.984375 L 13.390625 -13.21875 L 5.109375 -13.265625 L 5.09375 -9.640625 L 12.765625 -9.59375 L 12.75 -6.84375 Z M 5.078125 -6.890625 "/></g></g></g><g fill="#ffffff" fill-opacity="1"><g transform="translate(195.204965, 290.868723)"><g><path d="M 3.375 -16.484375 L 4.75 -3.265625 L 12.390625 -4.0625 L 12.671875 -1.3125 L 1.75 -0.1875 L 0.09375 -16.15625 Z M 3.375 -16.484375 "/></g></g></g><g fill="#ffffff" fill-opacity="1"><g transform="translate(209.45544, 289.411942)"><g><path d="M 7.96875 -1.234375 C 7.382812 -1.109375 6.8125 -1.03125 6.25 -1 C 5.695312 -0.976562 5.109375 -1.035156 4.484375 -1.171875 C 3.859375 -1.316406 3.296875 -1.539062 2.796875 -1.84375 C 2.296875 -2.15625 1.835938 -2.613281 1.421875 -3.21875 C 1.015625 -3.820312 0.71875 -4.546875 0.53125 -5.390625 L -1.796875 -16.03125 L 1.421875 -16.734375 L 3.75 -6.09375 C 3.957031 -5.15625 4.351562 -4.515625 4.9375 -4.171875 C 5.53125 -3.835938 6.335938 -3.78125 7.359375 -4 C 8.359375 -4.21875 9.050781 -4.601562 9.4375 -5.15625 C 9.832031 -5.71875 9.925781 -6.46875 9.71875 -7.40625 L 7.390625 -18.046875 L 10.625 -18.75 L 12.953125 -8.109375 C 13.140625 -7.265625 13.171875 -6.484375 13.046875 -5.765625 C 12.921875 -5.046875 12.695312 -4.4375 12.375 -3.9375 C 12.050781 -3.445312 11.632812 -3.007812 11.125 -2.625 C 10.625 -2.25 10.113281 -1.953125 9.59375 -1.734375 C 9.070312 -1.523438 8.53125 -1.359375 7.96875 -1.234375 Z M 7.96875 -1.234375 "/></g></g></g><g fill="#ffffff" fill-opacity="1"><g transform="translate(225.848922, 285.730589)"><g><path d="M 2.828125 -7.03125 L 4.703125 -1.625 L 1.578125 -0.546875 L -3.65625 -15.71875 L 3.03125 -18.03125 C 4.613281 -18.582031 5.960938 -18.597656 7.078125 -18.078125 C 8.203125 -17.554688 9.03125 -16.53125 9.5625 -15 C 10.09375 -13.457031 10.097656 -12.085938 9.578125 -10.890625 C 9.054688 -9.691406 8.101562 -8.851562 6.71875 -8.375 Z M 1.9375 -9.640625 L 4.84375 -10.640625 C 5.675781 -10.929688 6.222656 -11.328125 6.484375 -11.828125 C 6.753906 -12.328125 6.757812 -12.960938 6.5 -13.734375 C 6.226562 -14.515625 5.828125 -15.019531 5.296875 -15.25 C 4.773438 -15.488281 4.097656 -15.460938 3.265625 -15.171875 L 0.359375 -14.171875 Z M 1.9375 -9.640625 "/></g></g></g><g clip-path="url(#0f8090a32c)"><g clip-path="url(#fad572ce66)"><path fill="#cea348" d="M 88.269531 189.742188 L 100.433594 189.742188 L 100.433594 201.902344 L 88.269531 201.902344 Z M 88.269531 189.742188 " fill-opacity="1" fill-rule="nonzero"/></g></g><g clip-path="url(#721d28c675)"><g clip-path="url(#a498f57645)"><path fill="#cea348" d="M 274.757812 189.742188 L 286.921875 189.742188 L 286.921875 201.902344 L 274.757812 201.902344 Z M 274.757812 189.742188 " fill-opacity="1" fill-rule="nonzero"/></g></g><g fill="#000000" fill-opacity="1"><g transform="translate(156.819075, 237.87722)"><g><path d="M 0.671875 0 L 0.671875 -6.890625 L 6.09375 -6.890625 L 6.09375 -5.78125 L 2.109375 -5.78125 L 2.109375 -4.046875 L 5.796875 -4.046875 L 5.796875 -2.921875 L 2.109375 -2.921875 L 2.109375 -1.109375 L 6.296875 -1.109375 L 6.296875 0 Z M 0.671875 0 "/></g></g></g><g fill="#000000" fill-opacity="1"><g transform="translate(164.695234, 237.87722)"><g><path d="M 6.296875 -1.984375 C 6.296875 -1.304688 6.039062 -0.789062 5.53125 -0.4375 C 5.03125 -0.0820312 4.296875 0.09375 3.328125 0.09375 C 2.453125 0.09375 1.757812 -0.0625 1.25 -0.375 C 0.75 -0.6875 0.425781 -1.160156 0.28125 -1.796875 L 1.6875 -2.03125 C 1.78125 -1.664062 1.960938 -1.398438 2.234375 -1.234375 C 2.503906 -1.066406 2.882812 -0.984375 3.375 -0.984375 C 4.382812 -0.984375 4.890625 -1.289062 4.890625 -1.90625 C 4.890625 -2.101562 4.828125 -2.265625 4.703125 -2.390625 C 4.585938 -2.515625 4.425781 -2.617188 4.21875 -2.703125 C 4.007812 -2.785156 3.609375 -2.890625 3.015625 -3.015625 C 2.492188 -3.128906 2.132812 -3.222656 1.9375 -3.296875 C 1.738281 -3.367188 1.554688 -3.457031 1.390625 -3.5625 C 1.222656 -3.664062 1.082031 -3.785156 0.96875 -3.921875 C 0.851562 -4.054688 0.765625 -4.21875 0.703125 -4.40625 C 0.640625 -4.601562 0.609375 -4.820312 0.609375 -5.0625 C 0.609375 -5.6875 0.84375 -6.164062 1.3125 -6.5 C 1.78125 -6.832031 2.460938 -7 3.359375 -7 C 4.210938 -7 4.851562 -6.863281 5.28125 -6.59375 C 5.707031 -6.320312 5.984375 -5.878906 6.109375 -5.265625 L 4.703125 -5.078125 C 4.640625 -5.367188 4.492188 -5.585938 4.265625 -5.734375 C 4.046875 -5.890625 3.734375 -5.96875 3.328125 -5.96875 C 2.453125 -5.96875 2.015625 -5.695312 2.015625 -5.15625 C 2.015625 -4.96875 2.0625 -4.816406 2.15625 -4.703125 C 2.25 -4.585938 2.382812 -4.488281 2.5625 -4.40625 C 2.75 -4.332031 3.117188 -4.238281 3.671875 -4.125 C 4.335938 -3.976562 4.8125 -3.84375 5.09375 -3.71875 C 5.382812 -3.601562 5.613281 -3.46875 5.78125 -3.3125 C 5.945312 -3.15625 6.070312 -2.96875 6.15625 -2.75 C 6.25 -2.53125 6.296875 -2.273438 6.296875 -1.984375 Z M 6.296875 -1.984375 "/></g></g></g><g fill="#000000" fill-opacity="1"><g transform="translate(172.571392, 237.87722)"><g><path d="M 3.78125 -5.78125 L 3.78125 0 L 2.34375 0 L 2.34375 -5.78125 L 0.109375 -5.78125 L 0.109375 -6.890625 L 6.015625 -6.890625 L 6.015625 -5.78125 Z M 3.78125 -5.78125 "/></g></g></g><g fill="#000000" fill-opacity="1"><g transform="translate(179.884936, 237.87722)"><g><path d="M 6.8125 -3.5 C 6.8125 -2.789062 6.671875 -2.171875 6.390625 -1.640625 C 6.109375 -1.109375 5.710938 -0.703125 5.203125 -0.421875 C 4.703125 -0.140625 4.117188 0 3.453125 0 L 0.671875 0 L 0.671875 -6.890625 L 3.171875 -6.890625 C 4.328125 -6.890625 5.222656 -6.597656 5.859375 -6.015625 C 6.492188 -5.429688 6.8125 -4.59375 6.8125 -3.5 Z M 5.359375 -3.5 C 5.359375 -4.238281 5.164062 -4.800781 4.78125 -5.1875 C 4.394531 -5.582031 3.847656 -5.78125 3.140625 -5.78125 L 2.109375 -5.78125 L 2.109375 -1.109375 L 3.328125 -1.109375 C 3.953125 -1.109375 4.445312 -1.320312 4.8125 -1.75 C 5.175781 -2.175781 5.359375 -2.757812 5.359375 -3.5 Z M 5.359375 -3.5 "/></g></g></g><g fill="#000000" fill-opacity="1"><g transform="translate(188.313935, 237.87722)"><g><path d="M 0.6875 0 L 0.6875 -1.484375 L 2.09375 -1.484375 L 2.09375 0 Z M 0.6875 0 "/></g></g></g><g fill="#000000" fill-opacity="1"><g transform="translate(192.290897, 237.87722)"><g><path d="M 0.34375 0 L 0.34375 -0.953125 C 0.519531 -1.347656 0.773438 -1.734375 1.109375 -2.109375 C 1.441406 -2.484375 1.859375 -2.875 2.359375 -3.28125 C 2.835938 -3.675781 3.175781 -4 3.375 -4.25 C 3.570312 -4.5 3.671875 -4.75 3.671875 -5 C 3.671875 -5.59375 3.367188 -5.890625 2.765625 -5.890625 C 2.472656 -5.890625 2.25 -5.8125 2.09375 -5.65625 C 1.9375 -5.5 1.835938 -5.265625 1.796875 -4.953125 L 0.40625 -5.03125 C 0.476562 -5.664062 0.710938 -6.148438 1.109375 -6.484375 C 1.515625 -6.828125 2.0625 -7 2.75 -7 C 3.5 -7 4.070312 -6.828125 4.46875 -6.484375 C 4.863281 -6.140625 5.0625 -5.664062 5.0625 -5.0625 C 5.0625 -4.738281 5 -4.445312 4.875 -4.1875 C 4.75 -3.925781 4.582031 -3.679688 4.375 -3.453125 C 4.175781 -3.234375 3.957031 -3.023438 3.71875 -2.828125 C 3.476562 -2.640625 3.242188 -2.453125 3.015625 -2.265625 C 2.785156 -2.085938 2.578125 -1.90625 2.390625 -1.71875 C 2.203125 -1.539062 2.0625 -1.34375 1.96875 -1.125 L 5.171875 -1.125 L 5.171875 0 Z M 0.34375 0 "/></g></g></g><g fill="#000000" fill-opacity="1"><g transform="translate(199.056497, 237.87722)"><g><path d="M 5.15625 -3.453125 C 5.15625 -2.285156 4.957031 -1.398438 4.5625 -0.796875 C 4.164062 -0.203125 3.566406 0.09375 2.765625 0.09375 C 1.179688 0.09375 0.390625 -1.085938 0.390625 -3.453125 C 0.390625 -4.273438 0.476562 -4.945312 0.65625 -5.46875 C 0.832031 -5.988281 1.09375 -6.375 1.4375 -6.625 C 1.78125 -6.875 2.234375 -7 2.796875 -7 C 3.617188 -7 4.21875 -6.703125 4.59375 -6.109375 C 4.96875 -5.515625 5.15625 -4.628906 5.15625 -3.453125 Z M 3.78125 -3.453125 C 3.78125 -4.085938 3.75 -4.578125 3.6875 -4.921875 C 3.625 -5.273438 3.523438 -5.53125 3.390625 -5.6875 C 3.253906 -5.84375 3.054688 -5.921875 2.796875 -5.921875 C 2.515625 -5.921875 2.300781 -5.84375 2.15625 -5.6875 C 2.019531 -5.53125 1.921875 -5.273438 1.859375 -4.921875 C 1.796875 -4.578125 1.765625 -4.085938 1.765625 -3.453125 C 1.765625 -2.816406 1.796875 -2.320312 1.859375 -1.96875 C 1.929688 -1.613281 2.035156 -1.359375 2.171875 -1.203125 C 2.304688 -1.054688 2.503906 -0.984375 2.765625 -0.984375 C 3.035156 -0.984375 3.238281 -1.0625 3.375 -1.21875 C 3.519531 -1.382812 3.625 -1.644531 3.6875 -2 C 3.75 -2.351562 3.78125 -2.835938 3.78125 -3.453125 Z M 3.78125 -3.453125 "/></g></g></g><g fill="#000000" fill-opacity="1"><g transform="translate(205.822101, 237.87722)"><g><path d="M 0.34375 0 L 0.34375 -0.953125 C 0.519531 -1.347656 0.773438 -1.734375 1.109375 -2.109375 C 1.441406 -2.484375 1.859375 -2.875 2.359375 -3.28125 C 2.835938 -3.675781 3.175781 -4 3.375 -4.25 C 3.570312 -4.5 3.671875 -4.75 3.671875 -5 C 3.671875 -5.59375 3.367188 -5.890625 2.765625 -5.890625 C 2.472656 -5.890625 2.25 -5.8125 2.09375 -5.65625 C 1.9375 -5.5 1.835938 -5.265625 1.796875 -4.953125 L 0.40625 -5.03125 C 0.476562 -5.664062 0.710938 -6.148438 1.109375 -6.484375 C 1.515625 -6.828125 2.0625 -7 2.75 -7 C 3.5 -7 4.070312 -6.828125 4.46875 -6.484375 C 4.863281 -6.140625 5.0625 -5.664062 5.0625 -5.0625 C 5.0625 -4.738281 5 -4.445312 4.875 -4.1875 C 4.75 -3.925781 4.582031 -3.679688 4.375 -3.453125 C 4.175781 -3.234375 3.957031 -3.023438 3.71875 -2.828125 C 3.476562 -2.640625 3.242188 -2.453125 3.015625 -2.265625 C 2.785156 -2.085938 2.578125 -1.90625 2.390625 -1.71875 C 2.203125 -1.539062 2.0625 -1.34375 1.96875 -1.125 L 5.171875 -1.125 L 5.171875 0 Z M 0.34375 0 "/></g></g></g><g fill="#000000" fill-opacity="1"><g transform="translate(212.587699, 237.87722)"><g><path d="M 5.296875 -2.296875 C 5.296875 -1.566406 5.066406 -0.984375 4.609375 -0.546875 C 4.148438 -0.117188 3.523438 0.09375 2.734375 0.09375 C 2.046875 0.09375 1.492188 -0.0625 1.078125 -0.375 C 0.660156 -0.6875 0.40625 -1.132812 0.3125 -1.71875 L 1.6875 -1.828125 C 1.757812 -1.535156 1.882812 -1.320312 2.0625 -1.1875 C 2.25 -1.0625 2.476562 -1 2.75 -1 C 3.09375 -1 3.363281 -1.101562 3.5625 -1.3125 C 3.769531 -1.53125 3.875 -1.847656 3.875 -2.265625 C 3.875 -2.628906 3.773438 -2.914062 3.578125 -3.125 C 3.390625 -3.34375 3.125 -3.453125 2.78125 -3.453125 C 2.394531 -3.453125 2.082031 -3.304688 1.84375 -3.015625 L 0.515625 -3.015625 L 0.75 -6.890625 L 4.890625 -6.890625 L 4.890625 -5.875 L 2 -5.875 L 1.890625 -4.125 C 2.210938 -4.414062 2.625 -4.5625 3.125 -4.5625 C 3.78125 -4.5625 4.304688 -4.359375 4.703125 -3.953125 C 5.097656 -3.546875 5.296875 -2.992188 5.296875 -2.296875 Z M 5.296875 -2.296875 "/></g></g></g></svg>